# Blender 5.1.2
# www.blender.org
mtllib Door.mtl
o Cube
v 1.000000 -0.029405 -1.000000
v 1.000000 0.029405 -1.000000
v 1.000000 -0.029405 1.000000
v 1.000000 0.029405 1.000000
v -1.000000 -0.029405 -1.000000
v -1.000000 0.029405 -1.000000
v -1.000000 -0.029405 1.000000
v -1.000000 0.029405 1.000000
vn -0.0000 -1.0000 -0.0000
vn -0.0000 -0.0000 1.0000
vn -1.0000 -0.0000 -0.0000
vn -0.0000 1.0000 -0.0000
vn 1.0000 -0.0000 -0.0000
vn -0.0000 -0.0000 -1.0000
vt 0.000100 0.999900
vt 0.000100 0.000100
vt 0.999900 0.000100
vt 0.999900 0.999900
vt 0.375000 0.750000
vt 0.625000 0.750000
vt 0.625000 1.000000
vt 0.375000 1.000000
vt 0.375000 0.000000
vt 0.625000 0.000000
vt 0.625000 0.250000
vt 0.375000 0.250000
vt 0.375000 0.500000
vt 0.625000 0.500000
s 0
usemtl Material
f 1/1/1 3/4/1 7/3/1 5/2/1
f 4/5/2 8/8/2 7/7/2 3/6/2
f 8/9/3 6/12/3 5/11/3 7/10/3
f 6/1/4 8/4/4 4/3/4 2/2/4
f 2/13/5 4/5/5 3/6/5 1/14/5
f 6/12/6 2/13/6 1/14/6 5/11/6
